/* XPM */
static char *bc199d5906c24dcc994587f9f6ee5ce12NLP84or1EAZmTpD[] = {
/* columns rows colors chars-per-pixel */
"106 106 10 1 ",
"  c black",
". c #1D1A4D",
"X c #3F245C",
"o c #3E3270",
"O c #433E90",
"+ c #504B90",
"@ c #5C6EC8",
"# c #7193D3",
"$ c #70BFFA",
"% c #A49FCE",
/* pixels */
"%%%%%%%%%%%%%%%%%%%%%%%%%%%%%%%%%%%%%%%%%%%%%%%%%%%%%%%%%%%%%%%%%%%%%%%%%%%%%%%%%%%%%%%%%%%%%%%%%%%%%%%%%%",
"%%%%%%%%%%%%%%%%%%%%%%%%%%%%%%%%%%%%%%%%%%%%%%%%%%%%%%%%%%%%%%%%%%%%%%%%%%%%%%%%%%%%%%%%%%%%%%%%%%%%%%%%%%",
"%%%%%%%%%%%%%%%%%%%%%%%%%%%%%%%%%%%%%%%%%%%%%%%%%%%%%%%%%%%%%%%%%%%%%%%%%%%%%%%%%%%%%%%%%%%%%%%%%%%%%%%%%%",
"%%%%%%%%%%%%%%%%%%%%%%%%%%%%%%%%%%%%%%%%%%%%%%%%%%%%%%%%%%%%%%%%%%%%%%%%%%%%%%%%%%%%%%%%%%%%%%%%%%%%%%%%%%",
"%%%%%%%%%%%%%%%%%%%%%%%%%%%%%%%%%%%%%%%%%%%%%%%%%%%%%%%%%%%%%%%%%%%%%%%%%%%%%%%%%%%%%%%%%%%%%%%%%%%%%%%%%%",
"%%%%%%%%%%%%%%%%%%%%%%%%%%%%%%%%%%%%%%%%%%%%%%%%%%%%%%%%%%%%%%%%%%%%%%%%%%%%%%%%%%%%%%%%%%%%%%%%%%%%%%%%%%",
"%%%%%%%%%%%%%%%%%%%%%%%%%%%%%%%%%%%%%%%%%%%%%%%%%%%%%%%%%%%%%%%%%%%%%%%%%%%%%%%%%%%%%%%%%%%%%%%%%%%%%%%%%%",
"%%%%%%%%%%%%%%%%%%%%%%%%%%%%%%%%%%%%%%%%%%%%%%%%%%%%%%%%%%%%%%%%%%%%%%%%%%%%%%%%%%%%%%%%%%%%%%%%%%%%%%%%%%",
"%%%%%%%%%%%%%%%%%%%%%%%%%%%%%%%%%%%%%%%%%%%%%%%%%%%%%%%%%%%%%%%%%%%%%%%%%%%%%%%%%%%%%%%%%%%%%%%%%%%%%%%%%%",
"%%%%%%%%%%%%%%%%%%%%%%%%%%%%%%%%%%%%%%%%%%%%%%%%%%%%%%%%%%%%%%%%%%%%%%%%%%%%%%%%%%%%%%%%%%%%%%%%%%%%%%%%%%",
"%%%%%%%%%%%%%%%%%%%%%%%%%%%%%%%%%%%%%%%%%%%%%%%%%%%%%%%%%%%%%%%%%%%%%%%%%%%%%%%%%%%%%%%%%%%%%%%%%%%%%%%%%%",
"%%%%%%%%%%%%%%%%%%%%%%%%%%%%%%%%%%%%%%%%%%%%%%%%%%%%%%%%%%%%%%%%%%%%%%%%%%%%%%%%%%%%%%%%%%%%%%%%%%%%%%%%%%",
"%%%%%%%%%%%%%%%%%%%%%%%%%%%%%%%%%%%%%%%%%%%%%%%%%%%%%%%%%%%%%%%%%%%%%%%%%%%%%%%%%%%%%%%%%%%%%%%%%%%%%%%%%%",
"%%%%%%%%%%%%%%%%%%%%%%%%%%%%%%%%%%%%%%%%%%%%%%%%%%%%%%%%%%%%%%%%%%%%%%%%%%%%%%%%%%%%%%%%%%%%%%%%%%%%%%%%%%",
"%%%%%%%%%%%%%%%%%%%%%%%%%%%%%%%%%%%%%%%%%%%%%%%%%%%%%%%%%%%%%%%%%%%%%%%%%%%%%%%%%%%%%%%%%%%%%%%%%%%%%%%%%%",
"%%%%%%%%%%%%%%%%%%%%%%%%%%%%%%%%%%%%%%%%%%%%%%%%%%%%%%%%%%%%%%%%%%%%%%%%%%%%%%%%%%%%%%%%%%%%%%%%%%%%%%%%%%",
"%%%%%%%%%%%%%%%%%%%%%%%%%%%%%%%%%%%%%%%%%%%%%%%%%%%%%%%%%%%%%%%%%%%%%%%%%%%%%%%%%%%%%%%%%%%%%%%%%%%%%%%%%%",
"%%%%%%%%%%%%%%%%%%%%%%%%%%%%%%%%%%%%%%%%%%%%%%%%%%%%%%%%%%%%%%%%%%%%%%%%%%%%%%%%%%%%%%%%%%%%%%%%%%%%%%%%%%",
"%%%%%%%%%%%%%%%%%%%%%%%%%%%%%%%%%%%%%%%%%%%%%%%%%%%%%%%%%%%%%%%%%%%%%%%%%%%%%%%%%%%%%%%%%%%%%%%%%%%%%%%%%%",
"%%%%%%%%%%%%%%%%%%%%%%%%%%%%%%%%%%%%%%%%%%%%%%%%%%%%%%%%%%%%%%%%%%%%%%%%%%%%%%%%%%%%%%%%%%%%%%%%%%%%%%%%%%",
"%%%%%%%%%%%%%%%%%%%%%%%%%%%%%%%%%%%%%%%%%%%%%%%%%%%%%%%%%%%%%%%%%%%%%%%%%%%%%%%%%%%%%%%%%%%%%%%%%%%%%%%%%%",
"%%%%%%%%%%%%%%%%%%%%%%%%%%%%%%%%%%%%%%%%%%%%%%%%%%%%%%%%%%%%%%%%%%%%%%%%%%%%%%%%%%%%%%%%%%%%%%%%%%%%%%%%%%",
"%%%%%%%%%%%%%%%%%%%%%%%%%%%%%%%%%%%%%%%%%%%%%%%%%%%%%%%%%%%%%%%%%%%%%%%%%%%%%%%%%%%%%%%%%%%%%%%%%%%%%%%%%%",
"%%%%%%%%%%%%%%%%%%%%%%%%%%%%%%%%%%%%%%%%%%%%%%%%%%%%%%%%%%%%%%%%%%%%%%%%%%%%%%%%%%%%%%%%%%%%%%%%%%%%%%%%%%",
"%%%%%%%%%%%%%%%%%%%%%%%%%%%%%%%%%%%%%%%%%%%%%%%%%%%%%%%%%%%%%%%%%%%%%%%%%%%%%%%%%%%%%%%%%%%%%%%%%%%%%%%%%%",
"%%%%%%%%%%%%%%%%%%%%%%%%%%%%%%%%%%%%%%%%%%%%%%%%%%%%%%%%%%%%%%%%%%%%%%%%%%%%%%%%%%%%%%%%%%%%%%%%%%%%%%%%%%",
"%%%%%%%%%%%%%%%%%%%%%%%%%%%%%%%%%%%%%%%%%%%%%%%%%%%%%%%%%%%%%%%%%%%%%%%%%%%%%%%%%%%%%%%%%%%%%%%%%%%%%%%%%%",
"%%%%%%%%%%%%%%%%%%%%%%%%%%%%%%%%%%%%%%%%%%%%%%%%%%%%%%%%%%%%%%%%%%%%%%%%%%%%%%%%%%%%%%%%%%%%%%%%%%%%%%%%%%",
"%%%%%%%%%%%%%%%%%%%%%%%%%%%%%%%%%%%%%%%%%%%%%%%%%%%%%%%%%%%%%%%%%%%%%%%%%%%%%%%%%%%%%%%%%%%%%%%%%%%%%%%%%%",
"%%%%%%%%%%%                                                                                    %%%%%%%%%%%",
"%%%%%%%%%%%                                                                                    %%%%%%%%%%%",
"%%%%%%%%%%%    ++++++++++++++++++++++++++++++++++++++++++++OO++OOOOOOOOOOOOOOOOOOOOOOoooooooo  %%%%%%%%%%%",
"%%%%%%%%%%%    ++++++++++++++++++++++++++++++++++++++++++++OO++OOOOOOOOOOOOOOOOOOOOOOoooooooo  %%%%%%%%%%%",
"%%%%%%%%%%%    ++++++++++++++++++++++++++++++++++++++++++++++++++++++++OO++OOOOOOOOOOOOOOooOO  %%%%%%%%%%%",
"%%%%%%%%%%%    ++++++++++++++++++++++++++++++++++++++++++++++++++++++++OO++OOOOOOOOOOOOOOooOO  %%%%%%%%%%%",
"%%%%%%%%%%%    ++++++++++++++++++++++++++++++++++++++++OO++OOOOOOOOOOOOOOOOOOooOOoooooooooooo  %%%%%%%%%%%",
"%%%%%%%%%%%    ++++++++++++++++++++++++++++++++++++++++OO++OOOOOOOOOOOOOOOOOOooOOoooooooooooo  %%%%%%%%%%%",
"%%%%%%%%%%%    ++++++++++++++++++++++++++++++++++++++++++++++++++++OO++OOOOOOOOOOOOOOOOoooooo  %%%%%%%%%%%",
"%%%%%%%%%%%    ++++++++++++++++++++++++++++++++++++++++++++++++++++OO++OOOOOOOOOOOOOOOOoooooo  %%%%%%%%%%%",
"%%%%%%%%%%%    ++++++++++++++++++++++++++++++++++++OO++OOOOOOOOOOOOOOOOOOOOooOOoooooooooooooo  %%%%%%%%%%%",
"%%%%%%%%%%%    ++++++++++++++++++++++++++++++++++++OO++OOOOOOOOOOOOOOOOOOOOooOOoooooooooooooo  %%%%%%%%%%%",
"%%%%%%%%%%%    ++++++++++++++++++++++++++++++++++++++++++++++++OO++OOOOOOOOOOOOOOOOoooooooooo  %%%%%%%%%%%",
"%%%%%%%%%%%    ++++++++++++++++++++++++++++++++++++++++++++++++OO++OOOOOOOOOOOOOOOOoooooooooo  %%%%%%%%%%%",
"%%%%%%%%%%%                    ++++++++++++++++OO++OOOOOOOOOOOOOOOOOOOOOOOOOOoooooooooooooooo  %%%%%%%%%%%",
"%%%%%%%%%%%                    ++++++++++++++++OO++OOOOOOOOOOOOOOOOOOOOOOOOOOoooooooooooooooo  %%%%%%%%%%%",
"%%%%%%%%%%%    $$$$$$$$$$$$$$  ++++++++++++++++++++++++++OO++OOOOOOOOOOOOOOooooooooooooXXooXX  %%%%%%%%%%%",
"%%%%%%%%%%%    $$$$$$$$$$$$$$  ++++++++++++++++++++++++++OO++OOOOOOOOOOOOOOooooooooooooXXooXX  %%%%%%%%%%%",
"%%%%%%%%%%%    ##$$$$$$$$$$$$  ++++++++++++OO++OOOOOOOOOOOOOOOOOOOOOOOOOOoooooooooooooooooooo  %%%%%%%%%%%",
"%%%%%%%%%%%    ##$$$$$$$$$$$$  ++++++++++++OO++OOOOOOOOOOOOOOOOOOOOOOOOOOoooooooooooooooooooo  %%%%%%%%%%%",
"%%%%%%%%%%%    ####$$$$$$$$$$  ++++++++++++++OOOOOOOOOOOOOOOOOOOOOOOOOOooooooooooooooXXooXXXX  %%%%%%%%%%%",
"%%%%%%%%%%%    ####$$$$$$$$$$  ++++++++++++++OOOOOOOOOOOOOOOOOOOOOOOOOOooooooooooooooXXooXXXX  %%%%%%%%%%%",
"%%%%%%%%%%%    ######$$$$$$$$  ++++++++++++OOOOOOOOOOOOOOOOOOOOOOOOOOoooooooooooooooooooooooo  %%%%%%%%%%%",
"%%%%%%%%%%%    ######$$$$$$$$  ++++++++++++OOOOOOOOOOOOOOOOOOOOOOOOOOoooooooooooooooooooooooo  %%%%%%%%%%%",
"%%%%%%%%%%%    @@######$$$$$$                  OOOOOOOOOOOOOOOOOOOOooooooooooooooXXooXXXXXXXX  %%%%%%%%%%%",
"%%%%%%%%%%%    @@######$$$$$$                  OOOOOOOOOOOOOOOOOOOOooooooooooooooXXooXXXXXXXX  %%%%%%%%%%%",
"%%%%%%%%%%%    @@########$$$$..############$$  OOOOOOOOOOOOOOOOOOoooooooooooooooooooooooooooo  %%%%%%%%%%%",
"%%%%%%%%%%%    @@########$$$$..############$$  OOOOOOOOOOOOOOOOOOoooooooooooooooooooooooooooo  %%%%%%%%%%%",
"%%%%%%%%%%%    @@##########$$..@@##########$$  OOOOOOOOOOOOOOOOooooooooooooooooooXXXXXXXXXXXX  %%%%%%%%%%%",
"%%%%%%%%%%%    @@##########$$..@@##########$$  OOOOOOOOOOOOOOOOooooooooooooooooooXXXXXXXXXXXX  %%%%%%%%%%%",
"%%%%%%%%%%%    @@##########$$..@@##########$$  OOOOOOOOOOOOOOooooooooooooooooooXXXXXXXXXXXXXX  %%%%%%%%%%%",
"%%%%%%%%%%%    @@##########$$..@@##########$$  OOOOOOOOOOOOOOooooooooooooooooooXXXXXXXXXXXXXX  %%%%%%%%%%%",
"%%%%%%%%%%%    @@##########$$..@@##########$$  OOOOOOOOOOOOooooooooooooooooooXXXXXXXXXXXXXXXX  %%%%%%%%%%%",
"%%%%%%%%%%%    @@##########$$..@@##########$$  OOOOOOOOOOOOooooooooooooooooooXXXXXXXXXXXXXXXX  %%%%%%%%%%%",
"%%%%%%%%%%%    @@##########$$..@@##########$$                  ooooooooooooXXXXXXXXXXXXXXXXXX  %%%%%%%%%%%",
"%%%%%%%%%%%    @@##########$$..@@##########$$                  ooooooooooooXXXXXXXXXXXXXXXXXX  %%%%%%%%%%%",
"%%%%%%%%%%%    @@##########$$..@@##########$$..############$$  ooooooooooXXXXXXXXXXXXXXXXXXXX  %%%%%%%%%%%",
"%%%%%%%%%%%    @@##########$$..@@##########$$..############$$  ooooooooooXXXXXXXXXXXXXXXXXXXX  %%%%%%%%%%%",
"%%%%%%%%%%%    @@############..@@##########$$..@@##########$$  ooooooooXXXXXXXXXXXXXXXXXXXXXX  %%%%%%%%%%%",
"%%%%%%%%%%%    @@############..@@##########$$..@@##########$$  ooooooooXXXXXXXXXXXXXXXXXXXXXX  %%%%%%%%%%%",
"%%%%%%%%%%%    @@##########$$..@@##########$$..@@##########$$  ooooooXXXXXXXXXXXXXXXXXXXXXXXX  %%%%%%%%%%%",
"%%%%%%%%%%%    @@##########$$..@@##########$$..@@##########$$  ooooooXXXXXXXXXXXXXXXXXXXXXXXX  %%%%%%%%%%%",
"%%%%%%%%%%%    @@############..@@############..@@############  ooooXXXXXXXXXXXXXXXXXXXXXXXXXX  %%%%%%%%%%%",
"%%%%%%%%%%%    @@############..@@############..@@############  ooooXXXXXXXXXXXXXXXXXXXXXXXXXX  %%%%%%%%%%%",
"%%%%%%%%%%%    @@############..@@##########$$..@@##########$$                  XXXXXXXXXXXXXX  %%%%%%%%%%%",
"%%%%%%%%%%%    @@############..@@##########$$..@@##########$$                  XXXXXXXXXXXXXX  %%%%%%%%%%%",
"%%%%%%%%%%%    @@############..@@############..@@############..############$$  XXXXXXXXXXXXXX  %%%%%%%%%%%",
"%%%%%%%%%%%    @@############..@@############..@@############..############$$  XXXXXXXXXXXXXX  %%%%%%%%%%%",
"%%%%%%%%%%%    @@@@##########..@@############..@@############..##############  XXXXXXXXXXXXXX  %%%%%%%%%%%",
"%%%%%%%%%%%    @@@@##########..@@############..@@############..##############  XXXXXXXXXXXXXX  %%%%%%%%%%%",
"%%%%%%%%%%%    @@@@##########..@@@@##########..@@############..@@##########$$  XXXXXXXXXXXXXX  %%%%%%%%%%%",
"%%%%%%%%%%%    @@@@##########..@@@@##########..@@############..@@##########$$  XXXXXXXXXXXXXX  %%%%%%%%%%%",
"%%%%%%%%%%%    @@@@##########..@@@@##########..@@############..@@############  XXXXXXXXXXXXXX  %%%%%%%%%%%",
"%%%%%%%%%%%    @@@@##########..@@@@##########..@@############..@@############  XXXXXXXXXXXXXX  %%%%%%%%%%%",
"%%%%%%%%%%%    @@@@##########..@@@@##########..@@@@##########..@@############                  %%%%%%%%%%%",
"%%%%%%%%%%%    @@@@##########..@@@@##########..@@@@##########..@@############                  %%%%%%%%%%%",
"%%%%%%%%%%%    @@@@##########..@@@@@@########..@@@@##########..@@@@##########..@@############  %%%%%%%%%%%",
"%%%%%%%%%%%    @@@@##########..@@@@@@########..@@@@##########..@@@@##########..@@############  %%%%%%%%%%%",
"%%%%%%%%%%%    @@@@@@########..@@@@@@########..@@@@@@########..@@@@##########..@@@@##########  %%%%%%%%%%%",
"%%%%%%%%%%%    @@@@@@########..@@@@@@########..@@@@@@########..@@@@##########..@@@@##########  %%%%%%%%%%%",
"%%%%%%%%%%%    @@@@@@########..@@@@@@########..@@@@@@########..@@@@@@########..@@@@##########  %%%%%%%%%%%",
"%%%%%%%%%%%    @@@@@@########..@@@@@@########..@@@@@@########..@@@@@@########..@@@@##########  %%%%%%%%%%%",
"%%%%%%%%%%%    @@@@@@########..@@@@@@@@######..@@@@@@@@######..@@@@@@########..@@@@@@########  %%%%%%%%%%%",
"%%%%%%%%%%%    @@@@@@########..@@@@@@@@######..@@@@@@@@######..@@@@@@########..@@@@@@########  %%%%%%%%%%%",
"%%%%%%%%%%%    @@@@@@@@######..@@@@@@@@######..@@@@@@@@######..@@@@@@########..@@@@@@########  %%%%%%%%%%%",
"%%%%%%%%%%%    @@@@@@@@######..@@@@@@@@######..@@@@@@@@######..@@@@@@########..@@@@@@########  %%%%%%%%%%%",
"%%%%%%%%%%%    @@@@@@@@@@####..@@@@@@@@@@####..@@@@@@@@@@####..@@@@@@@@######..@@@@@@@@######  %%%%%%%%%%%",
"%%%%%%%%%%%    @@@@@@@@@@####..@@@@@@@@@@####..@@@@@@@@@@####..@@@@@@@@######..@@@@@@@@######  %%%%%%%%%%%",
"%%%%%%%%%%%                                                                                    %%%%%%%%%%%",
"%%%%%%%%%%%                                                                                    %%%%%%%%%%%",
"%%%%%%%%%%%%%%%%%%%%%%%%%%%%%%%%%%%%%%%%%%%%%%%%%%%%%%%%%%%%%%%%%%%%%%%%%%%%%%%%%%%%%%%%%%%%%%%%%%%%%%%%%%",
"%%%%%%%%%%%%%%%%%%%%%%%%%%%%%%%%%%%%%%%%%%%%%%%%%%%%%%%%%%%%%%%%%%%%%%%%%%%%%%%%%%%%%%%%%%%%%%%%%%%%%%%%%%",
"%%%%%%%%%%%%%%%%%%%%%%%%%%%%%%%%%%%%%%%%%%%%%%%%%%%%%%%%%%%%%%%%%%%%%%%%%%%%%%%%%%%%%%%%%%%%%%%%%%%%%%%%%%",
"%%%%%%%%%%%%%%%%%%%%%%%%%%%%%%%%%%%%%%%%%%%%%%%%%%%%%%%%%%%%%%%%%%%%%%%%%%%%%%%%%%%%%%%%%%%%%%%%%%%%%%%%%%",
"%%%%%%%%%%%%%%%%%%%%%%%%%%%%%%%%%%%%%%%%%%%%%%%%%%%%%%%%%%%%%%%%%%%%%%%%%%%%%%%%%%%%%%%%%%%%%%%%%%%%%%%%%%",
"%%%%%%%%%%%%%%%%%%%%%%%%%%%%%%%%%%%%%%%%%%%%%%%%%%%%%%%%%%%%%%%%%%%%%%%%%%%%%%%%%%%%%%%%%%%%%%%%%%%%%%%%%%",
"%%%%%%%%%%%%%%%%%%%%%%%%%%%%%%%%%%%%%%%%%%%%%%%%%%%%%%%%%%%%%%%%%%%%%%%%%%%%%%%%%%%%%%%%%%%%%%%%%%%%%%%%%%"
};
