/* XPM */
static char *_c0cbbb5e0bc498bf81dc85185675198I8XRtxmbDQxnZQX3[] = {
/* columns rows colors chars-per-pixel */
"106 106 25 1 ",
"  c black",
". c #1D1A4D",
"X c #302752",
"o c #312851",
"O c #46265C",
"+ c #413E6F",
"@ c #56326F",
"# c #55346F",
"$ c #423F70",
"% c #573470",
"& c #583471",
"* c #434071",
"= c #67CE5A",
"- c #68CF5A",
"; c #CECC5A",
": c #4F5890",
"> c #505992",
", c #5862CC",
"< c #A39ECC",
"1 c #A49FCE",
"2 c #B3B0FF",
"3 c #B6B3FF",
"4 c #BAB6FF",
"5 c #BCB8FF",
"6 c #FDFDFD",
/* pixels */
"11111<<<<<<<<<<<<<<<<<<<<<<<<<<<<<<<<<<<<<<111111111111111111111111111111111111111111111111111111111111111",
"11111<<<<<<<<<<<<<<<<<<<<<<<<<<<<<<<<<<<<<<111111111111111111111111111111111111111111111111111111111111111",
"111<<<<<<<<<<<<<<<<<<<<<<<<<<<<<<<<<<<<<<<<111111111111111111111111111111111111111111111111111111111111111",
"111<<<<<<<<<<<<<<<<<<<<<<<<<<<<<<<<<<<<<<<<111111111111111111111111111111111111111111111111111111111111111",
"111<<<<<<<<<<<<11<<<<<<<<<<<<<<<<<<<<<<<<<<111111111111111111111111111111111111111111111111111111111111111",
"111<<<<<<<<<<<<11<<<<<<<<<<<<<<<<<<<<<<<<<<111111111111111111111111111111111111111111111111111111111111111",
"111<<<<<<<<<<<<11                                                                        11111111111111111",
"111<<<<<<<<<<<<11                                                                        11111111111111111",
"111<<<<<<<<<<<<11  ::::::::::::::::::::::::>>>>>>>>>>>>>>>>>>>>>>>>>>>>>>>>>>>>>>>>>>>>  11111111111111111",
"111<<<<<<<<<<<<11  ::::::::::::::::::::::::>>>>>>>>>>>>>>>>>>>>>>>>>>>>>>>>>>>>>>>>>>>>  11111111111111111",
"111<<<<<<<<<<<<11  $$$$$$$$$$$$$$$$$$$$$$$$******************************************>>  11111111111111111",
"111<<<<<<<<<<<<11  $$$$$$$$$$$$$$$$$$$$$$$$******************************************>>  11111111111111111",
"111<<<<<<<<<<<<<<  $$$$............................................................**>>  11111111111111111",
"111<<<<<<<<<<<<<<  $$$$............................................................**>>  11111111111111111",
"1<<<<<<<<<<<<<<<<  $$$$............................................................**>>  11111111111111111",
"1<<<<<<<<<<<<<<<<  $$$$............................................................**>>  11111111111111111",
"1<<<<<<<<<<<<<<<<  $$$$..&&%%%%%%%%%%%%%%%%%%%%%%%%%%%%%%OO%%%%%%%%%%%%%%%%%%%%%%..$$::  <<<<<<<<<<1111111",
"1<<<<<<<<<<<<<<<<  $$$$..&&%%%%%%%%%%%%%%%%%%%%%%%%%%%%%%OO%%%%%%%%%%%%%%%%%%%%%%..$$::  <<<<<<<<<<1111111",
"1<<<<<<<<<<<<<<<<  $$$$..%%%%####==%%%%%%%%%%%%%%%%%%%%%%OO%%%%%%%%%%%%%%%%%%%%%%..$$::  <<<<<<<<<<1111111",
"1<<<<<<<<<<<<<<<<  $$$$..%%%%####==%%%%%%%%%%%%%%%%%%%%%%OO%%%%%%%%%%%%%%%%%%%%%%..$$::  <<<<<<<<<<1111111",
"1<<<<<<<<<<<<<<<<  $$$$..%%####==##%%------%%%%%%%%%%%%%%OO%%======%%,,,,,,,,%%%%..$$::  <<<<<<<<<<1111111",
"1<<<<<<<<<<<<<<<<  $$$$..%%####==##%%------%%%%%%%%%%%%%%OO%%======%%,,,,,,,,%%%%..$$::  <<<<<<<<<<1111111",
"<<<<<<<<<<<<<<<<<  $$$$..%%##==%%##%%%%%%--%%%%%%%%%%&&%%OO%%%%%%%%%%%%%%%%%%%%%%..$$::  <<<<<<<<<<<<11111",
"<<<<<<<<<<<<<<<<<  $$$$..%%##==%%##%%%%%%--%%%%%%%%%%&&%%OO%%%%%%%%%%%%%%%%%%%%%%..$$::  <<<<<<<<<<<<11111",
"<<<<<<<<<<<<<<<<<  $$$$..%%%%------%%%%--%%%%%%%%%%%%&&%%OO%%%%;;;;;;%%%%%%%%%%%%..$$::  <<<<<<<<<<<<11111",
"<<<<<<<<<<<<<<<<<  $$$$..%%%%------%%%%--%%%%%%%%%%%%&&%%OO%%%%;;;;;;%%%%%%%%%%%%..$$::  <<<<<<<<<<<<11111",
"<<<<<<<<<<<<<<<<<  $$$$..%%%%%%%%--%%------%%--------&&%%OO%%%%%%%%####%%%%%%%%%%..$$::  <<<<<<<<<<<<11111",
"<<<<<<<<<<<<<<<<<  $$$$..%%%%%%%%--%%------%%--------&&%%OO%%%%%%%%####%%%%%%%%%%..$$::  <<<<<<<<<<<<11111",
"<<<<<<<<<<<<<<<<<  $$$$..%%%%%%%%%%%%%%%%%%%%%%%%%%%%&&%%OO%%%%==%%%%%%%%%%%%%%%%..$$::  <<<<<<<<<<<<11111",
"<<<<<<<<<<<<<<<<<  $$$$..%%%%%%%%%%%%%%%%%%%%%%%%%%%%&&%%OO%%%%==%%%%%%%%%%%%%%%%..$$::  <<<<<<<<<<<<11111",
"<<<<<<<<<<<<<<<<<  $$$$..%%%%%%%%%%%%%%%%%%%%%%%%%%%%&&%%OO%%%%%%,,,,,,,,,,,,%%%%..$$::  <<<<<<<<<<<<11111",
"<<<<<<<<<<<<<<<<<  $$$$..%%%%%%%%%%%%%%%%%%%%%%%%%%%%&&%%OO%%%%%%,,,,,,,,,,,,%%%%..$$::  <<<<<<<<<<<<11111",
"<<<<<<<<<<<<<<<<<  $$$$..%%%%------,,,,,,,,,,,,,,,,%%&&%%OO%%%%==%%%%%%%%%%%%%%%%..$$::  <<<<<<<<<<<<<<111",
"<<<<<<<<<<<<<<<<<  $$$$..%%%%------,,,,,,,,,,,,,,,,%%&&%%OO%%%%==%%%%%%%%%%%%%%%%..$$::  <<<<<<<<<<<<<<111",
"<<<<<<<<<<<<<<<<<  $$$$..%%%%%%%%%%%%%%%%%%%%%%%%%%%%&&%%OO%%%%%%%%%%%%%%%%%%%%%%..$$::  <<<<<<<<<<<<<<111",
"<<<<<<<<<<<<<<<<<  $$$$..%%%%%%%%%%%%%%%%%%%%%%%%%%%%&&%%OO%%%%%%%%%%%%%%%%%%%%%%..$$::  <<<<<<<<<<<<<<111",
"<<<<<<<<<<<<<<<<<  **$$..%%%%------,,,,,,,,,,,,,,%%%%&&%%OO%%%%,,,,,,,,,,%%%%%%%%..$$::  <<<<<<<<<<<<<<111",
"<<<<<<<<<<<<<<<<<  **$$..%%%%------,,,,,,,,,,,,,,%%%%&&%%OO%%%%,,,,,,,,,,%%%%%%%%..$$::  <<<<<<<<<<<<<<111",
"<11                ****..&&&&&&&&&&&&&&&&&&&&&&&&&&&&&&&&OO&&&&&&&&&&&&&&&&&&&&&&..**>>                111",
"<11                ****..&&&&&&&&&&&&&&&&&&&&&&&&&&&&&&&&OO&&&&&&&&&&&&&&&&&&&&&&..**>>                111",
"<  66666666666666  ****..%%%%------,,,,,,,,%%%%,,,,%%&&%%OO%%%%,,,,,,,,%%%%%%%%%%..$$::  66666666666666  1",
"<  66666666666666  ****..%%%%------,,,,,,,,%%%%,,,,%%&&%%OO%%%%,,,,,,,,%%%%%%%%%%..$$::  66666666666666  1",
"<  66666666666666  $$$$..%%%%%%%%%%%%%%%%%%%%%%%%%%%%&&%%OO%%%%%%%%%%%%%%%%%%%%%%..$$::  66666666666666  1",
"<  66666666666666  $$$$..%%%%%%%%%%%%%%%%%%%%%%%%%%%%&&%%OO%%%%%%%%%%%%%%%%%%%%%%..$$::  66666666666666  1",
"<  66666666666666  $$$$..%%%%%%%%%%%%%%%%%%%%%%%%%%%%&&%%OO%%%%%%%%@@@@%%%%%%%%%%..$$::  66666666666666  1",
"<  66666666666666  $$$$..%%%%%%%%%%%%%%%%%%%%%%%%%%%%&&%%OO%%%%%%%%@@@@%%%%%%%%%%..$$::  66666666666666  1",
"<  66666666666666  $$$$............................................................$$++  66666666666666  1",
"<  66666666666666  $$$$............................................................$$++  66666666666666  1",
"<  66666666666666  $$$$$$$$$$$$$$$$$$$$$$$$$$$$$$$$$$**$$$$$$$$$$$$$$$$$$$$$$******$$::  66666666666666  1",
"<  66666666666666  $$$$$$$$$$$$$$$$$$$$$$$$$$$$$$$$$$**$$$$$$$$$$$$$$$$$$$$$$******$$::  66666666666666  1",
"<  66666666666666  $$$$$$$$$$$$$$$$********************************$$$$$$$$$$******oo++  66666666666666  1",
"<  66666666666666  $$$$$$$$$$$$$$$$********************************$$$$$$$$$$******oo++  66666666666666  1",
"<  66666666666666                          ....................                          66666666666666  1",
"<  66666666666666                          ....................                          66666666666666  1",
"<  66666666666666  666633333344445555555555  XXXX..****..XXXX  55555544444444    3333666666666666666666  1",
"<  66666666666666  666633333344445555555555  XXXX..****..XXXX  55555544444444    3333666666666666666666  1",
"<  666666666666  66666666666644445555444444  oooooo$$**oooooo  444444444444446666  66666666666666666666  1",
"<  666666666666  66666666666644445555444444  oooooo$$**oooooo  444444444444446666  66666666666666666666  1",
"<  666666666666  66666666666666666666444444  $$$$$$$$**$$$$$$  444444666666666666  66666666666666666666  1",
"<  666666666666  66666666666666666666444444  $$$$$$$$**$$$$$$  444444666666666666  66666666666666666666  1",
"<  666666666666  6666666666          66666666                6666666666666666666666  666666666666666666  1",
"<  666666666666  6666666666          66666666                6666666666666666666666  666666666666666666  1",
"<  666666666666  666666    6666666666  66666666666666116666666666666666666666666666  666666666666666666  1",
"<  666666666666  666666    6666666666  66666666666666116666666666666666666666666666  666666666666666666  1",
"<  666666666666          66666666                                        6666666666  666666666666666666  1",
"<  666666666666          66666666                                        6666666666  666666666666666666  1",
"<  666666666666666666666666666666  XX**XX**XX$$oo$$oo**oo$$$$oo++$$oo$$  666666        6666666666666666  1",
"<  666666666666666666666666666666  XX**XX**XX$$oo$$oo**oo$$$$oo++$$oo$$  666666        6666666666666666  1",
"<  666666666666666666666666666666  **oo$$XX**XX$$oo$$XX$$oooo$$$$oo$$oo  666666  oo$$  6666666666666666  1",
"<  666666666666666666666666666666  **oo$$XX**XX$$oo$$XX$$oooo$$$$oo$$oo  666666  oo$$  6666666666666666  1",
"<  666666666666666666666666666666  oo**XX**XX**XX**XX**XX**XX**$$**XX**  666666  $$::  6666666666666666  1",
"<  666666666666666666666666666666  oo**XX**XX**XX**XX**XX**XX**$$**XX**  666666  $$::  6666666666666666  1",
"<  666666666666666666666666666666  $$XX**XXXooooXXX**oX**XX**oX**XX**XX  666666  **::  6666666666666666  1",
"<  666666666666666666666666666666  $$XX**XXXXoooXXX**oX**XX**oX**XX**XX  666666  **::  6666666666666666  1",
"<  666666666666666666666666666666                                        666666        6666666666666666  1",
"<  666666666666666666666666666666                                        666666        6666666666666666  1",
"<  6666666666666666666666666666666666666666666666666666666666666666666666666666666666666666666666666666  1",
"<  6666666666666666666666666666666666666666666666666666666666666666666666666666666666666666666666666666  1",
"<  6666666666666666666666666666666666666666666666666666666666666666666666666666666666666666666666666666  1",
"<  6666666666666666666666666666666666666666666666666666666666666666666666666666666666666666666666666666  1",
"<  3333333333333333333333333333333333333333333333333344333333333333333333333333332222222222663333663366  1",
"<  3333333333333333333333333333333333333333333333333344333333333333333333333333332222222222663333663366  1",
"<  3333333333333333333333333333333333333333333333334444336633666633666666666666666666666666666666666666  1",
"<  3333333333333333333333333333333333333333333333334444336633666633666666666666666666666666666666666666  1",
"<11                                                                                                    <<1",
"<11                                                                                                    <<1",
"<<<<<  oooo..$$  <<<<<<<<<<<<<<<<<<<<<<<<<<<<<<<<<<<<11<<<<<<<<<<<<<<<<<<<<<<<<<<<<<<<<<<  **..oooo  <<<<1",
"<<<<<  oooo..$$  <<<<<<<<<<<<<<<<<<<<<<<<<<<<<<<<<<<<11<<<<<<<<<<<<<<<<<<<<<<<<<<<<<<<<<<  **..oooo  <<<<1",
"<<<<<  oooo    <<<<<<<<<<<<<<<<<<<<<<<<<<<<<<<<<<<<<<11<<<<<<<<<<<<<<<<<<<<<<<<<<<<<<<<<<<<    oo**  <<<<1",
"<<<<<  oooo    <<<<<<<<<<<<<<<<<<<<<<<<<<<<<<<<<<<<<<11<<<<<<<<<<<<<<<<<<<<<<<<<<<<<<<<<<<<    oo**  <<<<1",
"<<<<<  oo$$  1111<<<<<<<<<<<<<<<<<<<<<<<<<<<<<<<<<<<<11<<<<<<<<<<<<<<<<<<<<<<<<<<<<<<<<<<<<11  ****  <<<<1",
"<<<<<  oo$$  1111<<<<<<<<<<<<<<<<<<<<<<<<<<<<<<<<<<<<11<<<<<<<<<<<<<<<<<<<<<<<<<<<<<<<<<<<<11  ****  <<<<1",
"<<<<<  $$$$  <<<<<<<<<<<<<<<<<<<<<<<<<<<<<<<<<<<<<<<<11<<<<<<<<<<<<<<<<<<<<<<<<<<<<<<<<<<<<11  ****  <<<<1",
"<<<<<  $$$$  <<<<<<<<<<<<<<<<<<<<<<<<<<<<<<<<<<<<<<<<11<<<<<<<<<<<<<<<<<<<<<<<<<<<<<<<<<<<<11  ****  <<<<1",
"<<<<<  $$$$  <<<<<<<<<<<<<<<<<<<<<<<<<<<<<<<<<<<<<<<<11<<<<<<<<<<<<<<<<<<<<<<<<<<<<<<<<<<1111  ****  <<<<1",
"<<<<<  $$$$  <<<<<<<<<<<<<<<<<<<<<<<<<<<<<<<<<<<<<<<<11<<<<<<<<<<<<<<<<<<<<<<<<<<<<<<<<<<1111  ****  <<<<1",
"<<<<<  $$$$  <<<<<<<<<<<<<<<<<<<<<<<<<<<<<<<<<<<<<<<<11<<<<<<<<<<<<<<<<<<<<<<<<<<<<<<<<<<1111  ****  <<<<1",
"<<<<<  $$$$  <<<<<<<<<<<<<<<<<<<<<<<<<<<<<<<<<<<<<<<<11<<<<<<<<<<<<<<<<<<<<<<<<<<<<<<<<<<1111  ****  <<<<1",
"<<<<<  $$$$  <<<<<<<<<<<<<<<<<<<<<<<<<<<<<<<<<<<<<<<<11<<<<<<<<<<<<<<<<<<<<<<<<<<<<<<<<<<1111  ****  <<<<1",
"<<<<<  $$$$  <<<<<<<<<<<<<<<<<<<<<<<<<<<<<<<<<<<<<<<<11<<<<<<<<<<<<<<<<<<<<<<<<<<<<<<<<<<1111  ****  <<<<1",
"<<<<<  $$$$  11<<<<<<<<<<<<<<<<<<<<<<<<<<<<<<<<<<<<<<1111111111111111111111111111111111111111  ****  11111",
"<<<<<  $$$$  11<<<<<<<<<<<<<<<<<<<<<<<<<<<<<<<<<<<<<<1111111111111111111111111111111111111111  ****  11111",
"<<<<<11    1111<<<<<<<<<<<<<<<<<<<<<<<<<<<<1111111111111111111111111111111111111111111111111111    1111111",
"<<<<<11    1111<<<<<<<<<<<<<<<<<<<<<<<<<<<<1111111111111111111111111111111111111111111111111111    1111111",
"<<<<<<<<<<<11<<<<<<<<<<<<<<<<<<<<1111111111111111111111111111111111111111111111111111111111111111111111111",
"<<<<<<<<<<<11<<<<<<<<<<<<<<<<<<<<1111111111111111111111111111111111111111111111111111111111111111111111111"
};
