/* XPM */
static char *_e40af52522749d5c87afb3d4f651fe17eplVZ6F1aeWQ47e[] = {
/* columns rows colors chars-per-pixel */
"106 106 18 1 ",
"  c black",
". c #343434",
"X c #49212D",
"o c #674317",
"O c #8C3D01",
"+ c #E67D2E",
"@ c #41FF00",
"# c #FFB331",
"$ c #FFB353",
"% c #F4A264",
"& c #FFB960",
"* c #0643D3",
"= c #2E64E6",
"- c #FFCFB7",
"; c #FFDFB7",
": c #A49FCE",
"> c #FFFCF8",
", c white",
/* pixels */
"::::::::::::::::::::::::::::::::::::::::::::::::::::::::::::::::::::::::::::::::::::::::::::::::::::::::::",
"::::::::::::::::::::::::::::::::::::::::::::::::::::::::::::::::::::::::::::::::::::::::::::::::::::::::::",
"::::::::::::::::::::::::::::::::::::::::::::::::::::::::::::::::::::::::::::::::::::::::::::::::::::::::::",
"::::::::::::::::::::::::::::::::::::::::::::::::::::::::::::::::::::::::::::::::::::::::::::::::::::::::::",
"::::::::::::::::::::::::::::::::::::::::::::::::::::::::::  ::::::::::::::::::::::::::::::::::::::::::::::",
"::::::::::::::::::::::::::::::::::::::::::::::::::::::::::  ::::::::::::::::::::::::::::::::::::::::::::::",
"::::::::::::::::::::::::::::::::::::::::::::::::::::::    ::::::::::::::::::::::::::::::::::::::::::::::::",
"::::::::::::::::::::::::::::::::::::::::::::::::::::::    ::::::::::::::::::::::::::::::::::::::::::::::::",
"::::::::::::::::::::::::::::::::::::::::::::::::::::    ::::::::::::::::::::::::::::::::::::::::::::::::::",
"::::::::::::::::::::::::::::::::::::::::::::::::::::    ::::::::::::::::::::::::::::::::::::::::::::::::::",
"::::::::::::::::::::::::::::::::::::::::::::::::::          ::::::::::::::::::::::::::::::::::::::::::::::",
"::::::::::::::::::::::::::::::::::::::::::::::::::          ::::::::::::::::::::::::::::::::::::::::::::::",
"::::::::::::::::::::::::::::::::::::::        ::                  ::::::::::::::::::::::::::::::::::::::::",
"::::::::::::::::::::::::::::::::::::::        ::                  ::::::::::::::::::::::::::::::::::::::::",
"::::::::::::::::::::::::::::::::::::::::::::                          ::::::::::::::::::::::::::::::::::::",
"::::::::::::::::::::::::::::::::::::::::::::                          ::::::::::::::::::::::::::::::::::::",
"::::::::::::::::::::::::::::::::::::              XX      XXXXXX        ::::::::::::::::::::::::::::::::::",
"::::::::::::::::::::::::::::::::::::              XX      XXXXXX        ::::::::::::::::::::::::::::::::::",
"::::::::::::::::::::::::::::::::::                  XX    XXXXXXXXXX    ::::::::::::::::::::::::::::::::::",
"::::::::::::::::::::::::::::::::::                  XX    XXXXXXXXXX    ::::::::::::::::::::::::::::::::::",
"::::::::::::::::::::::::::::::::    XXXX            XXXXXX  XXXXXXXXXXXX  ::::::::::::::::::::::::::::::::",
"::::::::::::::::::::::::::::::::    XXXX            XXXXXX  XXXXXXXXXXXX  ::::::::::::::::::::::::::::::::",
"::::::::::::::::::::::::::::::::    XXXX    ;;      XXXXXXXX  XXXXXXXXXX    ::::::::::::::::::::::::::::::",
"::::::::::::::::::::::::::::::::    XXXX    ;;      XXXXXXXX  XXXXXXXXXX    ::::::::::::::::::::::::::::::",
"::::::::::::::::::::::::::::::    XXXXXX  ;;;;;;      XXXX      XXXXXX  XX  ::::::::::::::::::::::::::::::",
"::::::::::::::::::::::::::::::    XXXXXX  ;;;;;;      XXXX      XXXXXX  XX  ::::::::::::::::::::::::::::::",
"::::::::::::::::::::::::::::::    XXXX    ;;;;;;            XX        XXXX  ::::::::::::::::::::::::::::::",
"::::::::::::::::::::::::::::::    XXXX    ;;;;;;            XX        XXXX  ::::::::::::::::::::::::::::::",
"::::::::::::::::::::::::::::::          ;;;;;;;;;;            XX        XX  ::::::::::::::::::::::::::::::",
"::::::::::::::::::::::::::::::          ;;;;;;;;;;            XX        XX  ::::::::::::::::::::::::::::::",
"::::::::::::::::::::::::::::::          ;;;;;;;;;;    ;;          XXXX      ::::::::::::::::::::::::::::::",
"::::::::::::::::::::::::::::::          ;;;;;;;;;;    ;;          XXXX      ::::::::::::::::::::::::::::::",
"::::::::::::::::::::::::::::::        ;;;;;;;;;;;;    ;;;;;;                ::::::::::::::::::::::::::::::",
"::::::::::::::::::::::::::::::        ;;;;;;;;;;;;    ;;;;;;                ::::::::::::::::::::::::::::::",
"::::::::::::::::::::::::::::::      ;;;;        ;;;;  ;;;;                  ::::::::::::::::::::::::::::::",
"::::::::::::::::::::::::::::::      ;;;;        ;;;;  ;;;;                  ::::::::::::::::::::::::::::::",
"::::::::::::::::::::::::::::      ;;;;############;;;;  ;;########&&;;;;      ::::::::::::::::::::::::::::",
"::::::::::::::::::::::::::::      ;;;;############;;;;  ;;########&&;;;;      ::::::::::::::::::::::::::::",
"::::::::::::::::::::::::::::  ;;$$######;;      >>########;;      >>####$$;;  ::::::::::::::::::::::::::::",
"::::::::::::::::::::::::::::  ;;$$######;;      >>########;;      >>####$$;;  ::::::::::::::::::::::::::::",
"::::::::::::::::::::::::::::  ;;$$;;;;##  ;;  >>;;;;----##  ;;  >>;;;;;;$$;;  ::::::::::::::::::::::::::::",
"::::::::::::::::::::::::::::  ;;$$;;;;##  ;;  >>;;;;----##  ;;  >>;;;;;;$$;;  ::::::::::::::::::::::::::::",
"::::::::::::::::::::::::::::  $$$$;;------;;    ------------;;    ------$$$$  ::::::::::::::::::::::::::::",
"::::::::::::::::::::::::::::  $$$$;;------;;    ------------;;    ------$$$$  ::::::::::::::::::::::::::::",
"::::::::::::::::::::::::::::::    ;;------;;oooo----;;;;----;;oooo------    ::::::::::::::::::::::::::::::",
"::::::::::::::::::::::::::::::    ;;------;;oooo----;;;;----;;oooo------    ::::::::::::::::::::::::::::::",
"::::::::::::::::::::::::::::::####  ------;;;;;;;;;;$$$$;;;;;;;;;;----  ####::::::::::::::::::::::::::::::",
"::::::::::::::::::::::::::::::####  ------;;;;;;;;;;$$$$;;;;;;;;;;----  ####::::::::::::::::::::::::::::::",
"::::::::::::::::::::::::::::::::##::  ;;;;;;;;;;;;;;;;;;;;;;;;;;;;;;  ::##::::::::::::::::::::::::::::::::",
"::::::::::::::::::::::::::::::::##::  ;;;;;;;;;;;;;;;;;;;;;;;;;;;;;;  ::##::::::::::::::::::::::::::::::::",
"::::::::::::::::::::::::::::::::##::::  ;;;;;;;;;;$$$$$$$$;;;;;;;;  ::::##::::::::::::::::::::::::::::::::",
"::::::::::::::::::::::::::::::::##::::  ;;;;;;;;;;$$$$$$$$;;;;;;;;  ::::##::::::::::::::::::::::::::::::::",
"::::::::::::::::::::::::::::::::::::::::  ;;;;;;;;;;;;;;;;;;;;;;  ::::::::::::::::::::::::::::::::::::::::",
"::::::::::::::::::::::::::::::::::::::::  ;;;;;;;;;;;;;;;;;;;;;;  ::::::::::::::::::::::::::::::::::::::::",
"::::::::::::::::::::::::::::::::::::::::::  $$$$$$$$$$$$$$$$$$  ::::::::::::::::::::::::::::::::::::::::::",
"::::::::::::::::::::::::::::::::::::::::::  $$$$$$$$$$$$$$$$$$  ::::::::::::::::::::::::::::::::::::::::::",
"::::::::::::::::::::::::::::::::::::::::  @@@@++OOOOOOOOOO++@@@@  ::::::::::::::::::::::::::::::::::::::::",
"::::::::::::::::::::::::::::::::::::::::  @@@@++OOOOOOOOOO++@@@@  ::::::::::::::::::::::::::::::::::::::::",
"::::::::::::::::::::::::::::::::::::::  ++++++@@++++++++++@@++++++  ::::::::::::::::::::::::::::::::::::::",
"::::::::::::::::::::::::::::::::::::::  ++++++@@++++++++++@@++++++  ::::::::::::::::::::::::::::::::::::::",
"::::::::::::::::::::::::::::::::::::  OO++++++++@@++++++@@++++++++OO  ::::::::::::::::::::::::::::::::::::",
"::::::::::::::::::::::::::::::::::::  OO++++++++@@++++++@@++++++++OO  ::::::::::::::::::::::::::::::::::::",
"::::::::::::::::::::::::::::::::::  ++OO++++++++++@@++@@++++++++++OO++  ::::::::::::::::::::::::::::::::::",
"::::::::::::::::::::::::::::::::::  ++OO++++++++++@@++@@++++++++++OO++  ::::::::::::::::::::::::::::::::::",
"::::::::::::::::::::::::::::::::::  ++OO++++++++++++@@++++++++++++OO++  ::::::::::::::::::::::::::::::::::",
"::::::::::::::::::::::::::::::::::  ++OO++++++++++++@@++++++++++++OO++  ::::::::::::::::::::::::::::::::::",
"::::::::::::::::::::::::::::::::  ++++OO++++++++,,  ,,,,,,++++++++OO++++  ::::::::::::::::::::::::::::::::",
"::::::::::::::::::::::::::::::::  ++++OO++++++++,,  ,,,,,,++++++++OO++++  ::::::::::::::::::::::::::::::::",
"::::::::::::::::::::::::::::::::  ++++OO++++++++  ,,,,%%,,++++++++OO++++  ::::::::::::::::::::::::::::::::",
"::::::::::::::::::::::::::::::::  ++++OO++++++++  ,,,,%%,,++++++++OO++++  ::::::::::::::::::::::::::::::::",
"::::::::::::::::::::::::::::::::  ++++OOOOOOOO++,,,,,,,,,,++OOOOOOOO++++  ::::::::::::::::::::::::::::::::",
"::::::::::::::::::::::::::::::::  ++++OOOOOOOO++,,,,,,,,,,++OOOOOOOO++++  ::::::::::::::::::::::::::::::::",
"::::::::::::::::::::::::::::::::  ++++++**==OOOOOOOOOOOOOOOO**==**++++++  ::::::::::::::::::::::::::::::::",
"::::::::::::::::::::::::::::::::  ++++++**==OOOOOOOOOOOOOOOO**==**++++++  ::::::::::::::::::::::::::::::::",
"::::::::::::::::::::::::::::::::  OOOO**====**========**====**====**OOOO  ::::::::::::::::::::::::::::::::",
"::::::::::::::::::::::::::::::::  OOOO**====**========**====**====**OOOO  ::::::::::::::::::::::::::::::::",
"::::::::::::::::::::::::::::::::  ;;$$**==**==========**======**==**$$;;  ::::::::::::::::::::::::::::::::",
"::::::::::::::::::::::::::::::::  ;;$$**==**==========**======**==**$$;;  ::::::::::::::::::::::::::::::::",
"::::::::::::::::::::::::::::::::::  $$****============**========****$$  ::::::::::::::::::::::::::::::::::",
"::::::::::::::::::::::::::::::::::  $$****============**========****$$  ::::::::::::::::::::::::::::::::::",
"::::::::::::::::::::::::::::::::::::    ==============**==========    ::::::::::::::::::::::::::::::::::::",
"::::::::::::::::::::::::::::::::::::    ==============**==========    ::::::::::::::::::::::::::::::::::::",
"::::::::::::::::::::::::::::::::::::::  ============****==========  ::::::::::::::::::::::::::::::::::::::",
"::::::::::::::::::::::::::::::::::::::  ============****==========  ::::::::::::::::::::::::::::::::::::::",
"::::::::::::::::::::::::::::::::::::::  ============**============  ::::::::::::::::::::::::::::::::::::::",
"::::::::::::::::::::::::::::::::::::::  ============**============  ::::::::::::::::::::::::::::::::::::::",
"::::::::::::::::::::::::::::::::::::::  ============**============  ::::::::::::::::::::::::::::::::::::::",
"::::::::::::::::::::::::::::::::::::::  ============**============  ::::::::::::::::::::::::::::::::::::::",
"::::::::::::::::::::::::::::::::::::::  ============**============  ::::::::::::::::::::::::::::::::::::::",
"::::::::::::::::::::::::::::::::::::::  ============**============  ::::::::::::::::::::::::::::::::::::::",
"::::::::::::::::::::::::::::::::::::::  ============**============  ::::::::::::::::::::::::::::::::::::::",
"::::::::::::::::::::::::::::::::::::::  ============**============  ::::::::::::::::::::::::::::::::::::::",
"::::::::::::::::::::::::::::::::::::::::  ==========**==========  ::::::::::::::::::::::::::::::::::::::::",
"::::::::::::::::::::::::::::::::::::::::  ==========**==========  ::::::::::::::::::::::::::::::::::::::::",
"::::::::::::::::::::::::::::::::::::::::  **********************  ::::::::::::::::::::::::::::::::::::::::",
"::::::::::::::::::::::::::::::::::::::::  **********************  ::::::::::::::::::::::::::::::::::::::::",
"::::::::::::::::::::::::::::::::::::::::  ..........  ..........  ::::::::::::::::::::::::::::::::::::::::",
"::::::::::::::::::::::::::::::::::::::::  ..........  ..........  ::::::::::::::::::::::::::::::::::::::::",
"::::::::::::::::::::::::::::::::::::::::  ..........  ..........  ::::::::::::::::::::::::::::::::::::::::",
"::::::::::::::::::::::::::::::::::::::::  ..........  ..........  ::::::::::::::::::::::::::::::::::::::::",
"::::::::::::::::::::::::::::::::::::::::                          ::::::::::::::::::::::::::::::::::::::::",
"::::::::::::::::::::::::::::::::::::::::                          ::::::::::::::::::::::::::::::::::::::::",
"::::::::::::::::::::::::::::::::::::::::::::::::::::::::::::::::::::::::::::::::::::::::::::::::::::::::::",
"::::::::::::::::::::::::::::::::::::::::::::::::::::::::::::::::::::::::::::::::::::::::::::::::::::::::::",
"::::::::::::::::::::::::::::::::::::::::::::::::::::::::::::::::::::::::::::::::::::::::::::::::::::::::::",
"::::::::::::::::::::::::::::::::::::::::::::::::::::::::::::::::::::::::::::::::::::::::::::::::::::::::::"
};
